<svg width="32" height="32" viewBox="0 0 32 32" fill="none" xmlns="http://www.w3.org/2000/svg">
  <!-- Background circle with subtle gradient -->
  <defs>
    <radialGradient id="bg-gradient" cx="50%" cy="30%" r="70%">
      <stop offset="0%" style="stop-color:#F5F1EB;stop-opacity:1" />
      <stop offset="100%" style="stop-color:#D4B896;stop-opacity:1" />
    </radialGradient>
    <linearGradient id="mirror-gradient" x1="0%" y1="0%" x2="100%" y2="100%">
      <stop offset="0%" style="stop-color:#9CAF88;stop-opacity:1" />
      <stop offset="50%" style="stop-color:#6B7C5E;stop-opacity:1" />
      <stop offset="100%" style="stop-color:#9CAF88;stop-opacity:1" />
    </linearGradient>
    <linearGradient id="reflection-gradient" x1="0%" y1="0%" x2="100%" y2="100%">
      <stop offset="0%" style="stop-color:#FEFCF8;stop-opacity:0.9" />
      <stop offset="50%" style="stop-color:#E6B85C;stop-opacity:0.3" />
      <stop offset="100%" style="stop-color:#FEFCF8;stop-opacity:0.1" />
    </linearGradient>
  </defs>
  
  <!-- Background -->
  <circle cx="16" cy="16" r="16" fill="url(#bg-gradient)" />
  
  <!-- Mirror frame (organic, mystical shape) -->
  <path d="M16 4C20.5 4 24.5 6.5 26 10.5C27.5 14.5 26.8 19 24.5 22.5C22.2 26 18.5 27.5 16 27.5C13.5 27.5 9.8 26 7.5 22.5C5.2 19 4.5 14.5 6 10.5C7.5 6.5 11.5 4 16 4Z" fill="url(#mirror-gradient)" stroke="#2C4A3B" stroke-width="0.8" />
  
  <!-- Inner mirror surface -->
  <ellipse cx="16" cy="15.5" rx="7.5" ry="9" fill="url(#reflection-gradient)" opacity="0.95" />
  
  <!-- Mystical reflection highlight -->
  <ellipse cx="13.5" cy="12" rx="2.5" ry="4" fill="#FEFCF8" opacity="0.6" transform="rotate(-15 13.5 12)" />
  
  <!-- Subtle inner glow -->
  <circle cx="16" cy="15.5" r="6" fill="none" stroke="#E6B85C" stroke-width="0.3" opacity="0.4" />
  
  <!-- Sacred geometry accent (subtle triangular pattern) -->
  <path d="M16 10 L19 14 L13 14 Z" fill="#9CAF88" opacity="0.3" />
  <path d="M16 21 L19 17 L13 17 Z" fill="#9CAF88" opacity="0.3" />
  
  <!-- Micro details for premium feel -->
  <circle cx="20" cy="11" r="0.8" fill="#FEFCF8" opacity="0.7" />
  <circle cx="12" cy="20" r="0.6" fill="#E6B85C" opacity="0.5" />
</svg>